<svg xmlns="http://www.w3.org/2000/svg" width="24" height="24" viewBox="0 0 24 24">
<style>
  path { fill: #000000; }
  @media (prefers-color-scheme: dark) { path { fill: #FFFFFF; } }
</style>
<path d="M 3.64 0.36 c -0.55 0.15 -1.12 0.48 -1.46 0.85 -0.38 0.42 -0.67 0.91 -0.78 1.35 -0.11 0.44 -0.12 0.73 -0.10 3.46 0.01 2.76 0.01 2.89 0.09 3.20 0.16 0.60 0.29 0.92 0.61 1.46 0.31 0.53 0.64 0.93 1.29 1.61 l 0.31 0.32 0.02 3.36 c 0.02 3.85 0.01 3.72 0.34 4.80 0.01 0.04 0.05 0.12 0.08 0.16 0.03 0.04 0.05 0.10 0.05 0.14 0.00 0.07 0.32 0.59 0.54 0.88 0.32 0.42 0.83 0.76 1.46 0.98 0.18 0.06 0.33 0.08 0.84 0.08 0.54 0.00 0.65 -0.01 0.86 -0.09 0.34 -0.12 0.46 -0.18 0.65 -0.30 0.26 -0.16 0.30 -0.16 0.70 0.18 0.03 0.03 0.09 0.07 0.12 0.08 0.03 0.02 0.11 0.06 0.18 0.11 0.15 0.10 0.46 0.24 0.52 0.24 0.02 0.00 0.08 0.03 0.12 0.06 0.04 0.03 0.10 0.06 0.14 0.06 0.03 0.00 0.11 0.02 0.18 0.06 0.07 0.03 0.18 0.07 0.25 0.08 0.07 0.01 0.21 0.04 0.32 0.06 0.78 0.16 1.45 0.20 1.84 0.12 0.13 -0.03 0.37 -0.06 0.52 -0.08 0.42 -0.05 0.97 -0.20 1.21 -0.31 0.04 -0.02 0.20 -0.10 0.35 -0.17 0.15 -0.08 0.42 -0.24 0.59 -0.37 0.30 -0.22 0.45 -0.27 0.54 -0.18 0.09 0.09 0.46 0.27 0.77 0.38 0.32 0.11 1.37 0.11 1.66 0.00 0.52 -0.19 0.64 -0.26 0.94 -0.49 0.41 -0.31 0.83 -0.84 1.02 -1.28 0.04 -0.09 0.10 -0.21 0.13 -0.27 0.03 -0.06 0.06 -0.14 0.06 -0.17 0.00 -0.03 0.02 -0.12 0.06 -0.19 0.10 -0.22 0.18 -0.67 0.23 -1.19 0.03 -0.30 0.05 -1.74 0.05 -3.64 l 0.01 -3.13 0.26 -0.25 c 0.30 -0.29 0.52 -0.53 0.74 -0.80 0.09 -0.11 0.18 -0.22 0.21 -0.25 0.08 -0.09 0.41 -0.60 0.41 -0.64 0.00 -0.02 0.02 -0.05 0.03 -0.06 0.10 -0.04 0.57 -1.22 0.57 -1.45 0.00 -0.06 0.02 -0.15 0.04 -0.21 0.04 -0.12 0.07 -5.98 0.02 -6.05 -0.01 -0.02 -0.04 -0.13 -0.06 -0.25 -0.02 -0.12 -0.06 -0.25 -0.08 -0.29 -0.02 -0.04 -0.08 -0.17 -0.13 -0.28 -0.13 -0.30 -0.36 -0.62 -0.64 -0.90 -0.34 -0.33 -0.53 -0.46 -1.13 -0.72 -0.26 -0.11 -0.48 -0.14 -1.16 -0.14 -0.78 0.00 -0.95 0.03 -1.40 0.24 -0.23 0.11 -0.54 0.30 -0.65 0.40 -0.03 0.03 -0.09 0.08 -0.14 0.12 -0.07 0.06 -0.30 0.33 -0.50 0.59 -0.05 0.07 -0.45 0.74 -0.45 0.75 0.00 0.01 -0.18 0.32 -0.40 0.69 -0.22 0.37 -0.42 0.71 -0.44 0.76 -0.02 0.04 -0.05 0.11 -0.08 0.14 -0.08 0.13 -0.58 0.98 -0.63 1.08 -0.02 0.06 -0.06 0.13 -0.09 0.16 -0.08 0.12 -0.46 0.79 -0.56 0.97 -0.10 0.20 -0.18 0.24 -0.40 0.23 -0.39 -0.02 -1.40 0.12 -1.85 0.24 -0.11 0.03 -0.19 0.03 -0.30 0.00 -0.08 -0.02 -0.23 -0.06 -0.33 -0.09 -0.23 -0.06 -1.18 -0.16 -1.50 -0.16 -0.24 0.00 -0.25 -0.00 -0.34 -0.15 -0.06 -0.08 -0.12 -0.18 -0.14 -0.23 -0.15 -0.28 -0.31 -0.57 -0.34 -0.61 -0.02 -0.03 -0.07 -0.11 -0.12 -0.19 -0.16 -0.30 -0.22 -0.40 -0.32 -0.56 -0.06 -0.09 -0.16 -0.27 -0.24 -0.40 -0.16 -0.30 -0.47 -0.82 -0.52 -0.90 -0.02 -0.03 -0.06 -0.10 -0.08 -0.14 -0.02 -0.04 -0.08 -0.14 -0.12 -0.20 -0.04 -0.07 -0.09 -0.15 -0.11 -0.18 -0.02 -0.03 -0.13 -0.24 -0.26 -0.45 -0.13 -0.22 -0.23 -0.40 -0.23 -0.41 0.00 -0.04 -0.38 -0.56 -0.54 -0.75 -0.20 -0.23 -0.63 -0.57 -0.86 -0.67 -0.08 -0.04 -0.20 -0.09 -0.28 -0.13 -0.27 -0.12 -0.54 -0.16 -1.20 -0.17 -0.53 -0.00 -0.71 0.01 -0.92 0.06 z m 1.39 1.40 c 0.46 0.16 0.80 0.47 1.12 1.02 0.15 0.26 0.62 1.06 0.72 1.24 0.03 0.04 0.06 0.11 0.08 0.14 0.02 0.03 0.22 0.39 0.46 0.79 0.24 0.40 0.43 0.74 0.43 0.77 0.00 0.02 0.01 0.04 0.03 0.05 0.04 0.02 0.69 1.10 0.69 1.15 0.00 0.06 -0.12 0.20 -0.17 0.20 -0.08 0.00 -0.63 0.42 -0.84 0.63 -0.32 0.33 -0.45 0.51 -0.64 0.87 -0.26 0.47 -0.38 0.90 -0.27 0.90 0.02 0.00 0.10 -0.06 0.18 -0.13 1.06 -1.02 2.37 -1.52 3.77 -1.45 0.51 0.03 1.16 0.17 1.52 0.32 0.11 0.05 0.15 0.05 0.46 -0.06 0.62 -0.22 0.92 -0.26 1.64 -0.26 0.53 0.00 0.73 0.02 1.00 0.09 0.32 0.08 0.91 0.28 1.06 0.36 0.04 0.02 0.10 0.05 0.14 0.06 0.03 0.02 0.12 0.06 0.18 0.10 0.07 0.04 0.15 0.09 0.18 0.11 0.16 0.08 0.82 0.60 0.98 0.77 0.08 0.09 0.18 0.11 0.18 0.03 0.00 -0.09 -0.11 -0.42 -0.22 -0.64 -0.28 -0.60 -0.88 -1.29 -1.36 -1.58 -0.13 -0.08 -0.27 -0.17 -0.31 -0.20 -0.08 -0.07 -0.09 -0.22 -0.01 -0.30 0.03 -0.03 0.06 -0.07 0.06 -0.09 0.00 -0.02 0.06 -0.13 0.14 -0.25 0.15 -0.22 0.45 -0.73 0.51 -0.84 0.04 -0.07 0.09 -0.16 0.24 -0.39 0.06 -0.10 0.11 -0.18 0.11 -0.19 0.00 -0.01 0.05 -0.10 0.11 -0.19 0.16 -0.24 0.20 -0.32 0.24 -0.39 0.03 -0.06 0.35 -0.61 0.42 -0.72 0.02 -0.03 0.06 -0.10 0.08 -0.14 0.02 -0.04 0.08 -0.14 0.12 -0.20 0.04 -0.07 0.13 -0.21 0.18 -0.32 0.30 -0.56 0.71 -1.04 0.98 -1.15 0.34 -0.14 0.53 -0.18 0.76 -0.19 0.68 -0.00 1.27 0.38 1.63 1.06 l 0.11 0.20 0.01 2.73 c 0.01 1.58 -0.00 2.84 -0.03 2.98 -0.06 0.37 -0.14 0.62 -0.32 0.98 -0.28 0.55 -0.55 0.91 -1.22 1.61 -0.42 0.44 -0.58 0.67 -0.68 1.04 -0.07 0.24 -0.07 0.44 -0.06 2.80 l 0.02 2.54 -0.12 0.01 c -0.10 0.01 -0.14 -0.02 -0.27 -0.18 -0.08 -0.11 -0.21 -0.26 -0.28 -0.34 -0.07 -0.08 -0.24 -0.28 -0.39 -0.44 -0.14 -0.16 -0.38 -0.43 -0.54 -0.59 -0.66 -0.69 -0.78 -0.83 -0.78 -0.92 0.00 -0.05 0.03 -0.10 0.07 -0.11 0.04 -0.01 0.12 -0.05 0.18 -0.08 0.06 -0.03 0.13 -0.06 0.16 -0.06 0.05 0.00 0.46 -0.32 0.59 -0.46 0.16 -0.17 0.36 -0.57 0.36 -0.72 0.00 -0.12 -0.33 -0.43 -0.59 -0.56 -0.40 -0.20 -0.79 -0.27 -1.38 -0.25 -0.53 0.02 -0.88 0.07 -1.01 0.14 -0.04 0.02 -0.16 0.08 -0.26 0.13 -0.30 0.14 -0.30 0.17 0.08 0.70 0.10 0.13 0.19 0.26 0.20 0.28 0.06 0.08 0.36 0.52 0.54 0.80 0.43 0.67 0.65 1.01 0.79 1.21 0.08 0.11 0.16 0.24 0.18 0.28 0.06 0.09 0.19 0.30 0.23 0.35 0.02 0.02 0.15 0.22 0.29 0.43 0.14 0.22 0.36 0.55 0.49 0.74 0.33 0.50 0.54 0.81 0.59 0.88 0.02 0.04 0.09 0.13 0.15 0.21 0.06 0.08 0.16 0.26 0.23 0.39 0.11 0.22 0.12 0.28 0.12 0.64 0.00 0.28 -0.02 0.42 -0.06 0.47 -0.03 0.04 -0.06 0.10 -0.06 0.13 0.00 0.06 -0.21 0.34 -0.38 0.50 -0.23 0.22 -0.64 0.38 -0.94 0.39 -0.35 0.00 -0.80 -0.20 -1.22 -0.55 -0.04 -0.03 -0.34 -0.25 -0.72 -0.50 -0.06 -0.05 -0.13 -0.10 -0.14 -0.11 -0.01 -0.01 -0.12 -0.09 -0.24 -0.18 -0.12 -0.08 -0.24 -0.17 -0.26 -0.19 -0.03 -0.03 -0.49 -0.36 -0.84 -0.61 -0.04 -0.03 -0.23 -0.17 -0.41 -0.30 -0.18 -0.14 -0.34 -0.24 -0.36 -0.24 -0.02 0.00 -0.04 -0.02 -0.05 -0.03 -0.00 -0.02 -0.19 -0.16 -0.41 -0.31 -0.22 -0.15 -0.41 -0.30 -0.43 -0.32 -0.02 -0.02 -0.03 -0.57 -0.03 -1.22 l 0.00 -1.18 0.11 -0.11 c 0.30 -0.29 0.73 -0.08 0.73 0.36 0.00 0.25 0.06 0.28 0.31 0.14 0.16 -0.10 0.22 -0.16 0.31 -0.34 0.18 -0.39 0.12 -0.73 -0.17 -1.00 -0.33 -0.30 -0.86 -0.44 -1.59 -0.42 -0.59 0.02 -0.86 0.08 -1.17 0.24 -0.28 0.15 -0.36 0.23 -0.48 0.45 -0.15 0.31 -0.07 0.67 0.22 0.95 0.14 0.14 0.36 0.25 0.40 0.21 0.01 -0.01 0.04 -0.13 0.05 -0.26 0.04 -0.28 0.10 -0.40 0.26 -0.45 0.18 -0.06 0.37 -0.01 0.48 0.14 l 0.10 0.13 0.00 1.15 0.00 1.15 -0.10 0.10 c -0.06 0.05 -0.23 0.18 -0.39 0.29 -0.16 0.11 -0.55 0.39 -0.88 0.63 -0.33 0.24 -0.67 0.48 -0.76 0.55 -0.40 0.29 -1.40 1.02 -1.76 1.28 -0.50 0.37 -0.56 0.40 -0.83 0.48 -0.30 0.09 -0.50 0.08 -0.81 -0.02 -0.89 -0.29 -1.32 -1.30 -0.89 -2.08 0.08 -0.14 0.33 -0.54 0.57 -0.89 0.43 -0.64 0.96 -1.43 1.04 -1.55 0.02 -0.04 0.13 -0.20 0.24 -0.36 0.11 -0.16 0.21 -0.31 0.22 -0.33 0.01 -0.02 0.07 -0.10 0.13 -0.18 0.06 -0.08 0.12 -0.16 0.12 -0.17 0.00 -0.04 1.04 -1.61 1.38 -2.08 0.36 -0.50 0.35 -0.52 -0.05 -0.70 -0.34 -0.16 -0.56 -0.20 -1.19 -0.22 -0.40 -0.02 -0.58 -0.00 -0.80 0.05 -0.62 0.15 -1.14 0.51 -1.14 0.78 0.00 0.32 0.44 0.90 0.82 1.08 0.21 0.10 0.39 0.18 0.48 0.20 0.14 0.04 0.07 0.20 -0.28 0.56 -0.19 0.20 -0.54 0.57 -0.76 0.82 -0.23 0.25 -0.50 0.55 -0.60 0.66 -0.10 0.11 -0.24 0.28 -0.32 0.37 -0.14 0.18 -0.29 0.23 -0.36 0.10 -0.02 -0.04 -0.03 -1.05 -0.01 -2.53 0.04 -2.73 0.04 -2.72 -0.22 -3.18 -0.08 -0.14 -0.31 -0.42 -0.54 -0.66 -0.87 -0.89 -1.34 -1.65 -1.49 -2.42 -0.05 -0.28 -0.06 -5.52 -0.01 -5.80 0.02 -0.09 0.05 -0.19 0.08 -0.22 0.02 -0.03 0.08 -0.12 0.12 -0.20 0.09 -0.17 0.32 -0.42 0.55 -0.58 0.40 -0.28 1.03 -0.38 1.47 -0.22 z m 7.68 17.71 c 0.21 0.19 0.48 0.44 0.60 0.55 0.19 0.18 0.52 0.47 0.84 0.72 0.05 0.04 0.14 0.12 0.18 0.16 0.05 0.04 0.17 0.15 0.28 0.24 0.12 0.10 0.18 0.18 0.18 0.24 -0.00 0.12 -0.32 0.34 -0.79 0.53 -0.07 0.03 -0.19 0.08 -0.26 0.11 -0.69 0.28 -2.39 0.29 -2.96 0.00 -0.06 -0.03 -0.14 -0.06 -0.18 -0.06 -0.03 0.00 -0.11 -0.02 -0.16 -0.06 -0.06 -0.03 -0.14 -0.07 -0.17 -0.08 -0.03 -0.02 -0.11 -0.06 -0.18 -0.10 -0.06 -0.04 -0.15 -0.09 -0.18 -0.11 -0.27 -0.13 -0.26 -0.30 0.02 -0.52 0.12 -0.10 0.25 -0.21 0.31 -0.26 0.05 -0.05 0.36 -0.32 0.68 -0.59 0.32 -0.28 0.62 -0.54 0.68 -0.60 0.28 -0.28 0.58 -0.52 0.65 -0.52 0.04 0.00 0.25 0.16 0.46 0.34 z"/>
</svg>
