<?xml version="1.0" encoding="utf-8"?>
<svg xmlns="http://www.w3.org/2000/svg" viewBox="0 0 150 40">
  <path d="M 3.91 0.092 C 3.002 0.348 2.054 0.912 1.475 1.537 C 0.837 2.254 0.367 3.083 0.177 3.841 C -0.011 4.599 -0.021 5.081 0.018 9.742 C 0.028 14.454 0.028 14.669 0.168 15.212 C 0.428 16.236 0.657 16.79 1.174 17.711 C 1.685 18.623 2.234 19.299 3.321 20.467 L 3.832 21.02 L 3.871 26.757 C 3.91 33.323 3.881 33.108 4.429 34.952 C 4.439 35.013 4.519 35.157 4.568 35.218 C 4.618 35.28 4.658 35.382 4.658 35.464 C 4.658 35.577 5.198 36.478 5.557 36.959 C 6.094 37.677 6.944 38.25 7.991 38.639 C 8.291 38.742 8.54 38.783 9.389 38.783 C 10.288 38.783 10.476 38.773 10.827 38.629 C 11.384 38.424 11.583 38.322 11.914 38.117 C 12.353 37.851 12.412 37.851 13.072 38.424 C 13.122 38.476 13.221 38.537 13.271 38.568 C 13.32 38.609 13.46 38.67 13.569 38.762 C 13.819 38.926 14.329 39.172 14.428 39.172 C 14.467 39.172 14.568 39.223 14.628 39.275 C 14.688 39.326 14.789 39.377 14.867 39.377 C 14.917 39.377 15.057 39.418 15.167 39.479 C 15.276 39.531 15.466 39.592 15.575 39.623 C 15.685 39.633 15.926 39.684 16.114 39.725 C 17.413 39.992 18.519 40.074 19.17 39.93 C 19.378 39.879 19.779 39.828 20.027 39.787 C 20.726 39.695 21.634 39.438 22.033 39.264 C 22.093 39.223 22.372 39.1 22.621 38.967 C 22.872 38.824 23.32 38.558 23.609 38.342 C 24.11 37.974 24.359 37.881 24.508 38.035 C 24.658 38.189 25.266 38.496 25.795 38.691 C 26.335 38.885 28.08 38.885 28.549 38.691 C 29.408 38.373 29.609 38.24 30.107 37.861 C 30.795 37.339 31.492 36.427 31.803 35.669 C 31.864 35.515 31.963 35.31 32.012 35.208 C 32.062 35.105 32.113 34.962 32.113 34.911 C 32.113 34.86 32.153 34.706 32.211 34.593 C 32.371 34.224 32.511 33.456 32.6 32.555 C 32.651 32.042 32.692 29.584 32.692 26.347 L 32.701 21.01 L 33.139 20.59 C 33.638 20.088 33.998 19.678 34.379 19.217 C 34.528 19.023 34.676 18.849 34.727 18.797 C 34.866 18.644 35.415 17.773 35.415 17.711 C 35.415 17.67 35.455 17.619 35.465 17.609 C 35.625 17.548 36.413 15.519 36.413 15.14 C 36.413 15.038 36.453 14.884 36.473 14.782 C 36.533 14.577 36.583 4.579 36.513 4.446 C 36.503 4.405 36.453 4.231 36.413 4.026 C 36.373 3.821 36.314 3.606 36.273 3.524 C 36.235 3.462 36.133 3.227 36.064 3.053 C 35.854 2.54 35.465 1.987 35.007 1.516 C 34.447 0.953 34.118 0.738 33.12 0.287 C 32.682 0.092 32.321 0.041 31.182 0.041 C 29.888 0.041 29.599 0.092 28.848 0.451 C 28.461 0.645 27.951 0.963 27.762 1.127 C 27.711 1.178 27.612 1.27 27.521 1.332 C 27.412 1.434 27.022 1.895 26.683 2.346 C 26.593 2.459 25.934 3.616 25.934 3.626 C 25.934 3.637 25.635 4.179 25.276 4.804 C 24.917 5.429 24.577 6.023 24.538 6.095 C 24.498 6.157 24.447 6.29 24.4 6.341 C 24.258 6.556 23.439 8.021 23.35 8.185 C 23.31 8.287 23.251 8.4 23.201 8.451 C 23.061 8.656 22.442 9.793 22.262 10.1 C 22.103 10.449 21.964 10.51 21.603 10.5 C 20.955 10.459 19.269 10.705 18.519 10.91 C 18.33 10.961 18.209 10.961 18.021 10.91 C 17.881 10.869 17.631 10.807 17.473 10.756 C 17.082 10.654 15.517 10.49 14.976 10.49 C 14.578 10.49 14.568 10.49 14.418 10.234 C 14.319 10.09 14.221 9.926 14.18 9.834 C 13.929 9.363 13.671 8.861 13.619 8.799 C 13.579 8.748 13.51 8.605 13.419 8.482 C 13.162 7.97 13.062 7.806 12.882 7.519 C 12.782 7.365 12.622 7.058 12.483 6.843 C 12.223 6.331 11.695 5.45 11.625 5.306 C 11.583 5.255 11.526 5.142 11.485 5.06 C 11.445 4.999 11.345 4.815 11.284 4.712 C 11.224 4.599 11.136 4.456 11.095 4.405 C 11.055 4.354 10.885 3.995 10.656 3.637 C 10.447 3.268 10.267 2.96 10.267 2.93 C 10.267 2.868 9.629 1.967 9.369 1.649 C 9.03 1.25 8.32 0.676 7.931 0.512 C 7.792 0.451 7.594 0.359 7.473 0.297 C 7.025 0.092 6.576 0.031 5.477 0 C 4.588 0 4.29 0.01 3.94 0.102 L 3.91 0.092 Z M 6.216 2.489 C 6.973 2.756 7.553 3.298 8.071 4.231 C 8.32 4.681 9.11 6.034 9.27 6.341 C 9.321 6.402 9.369 6.536 9.409 6.587 C 9.449 6.638 9.768 7.253 10.168 7.929 C 10.566 8.605 10.876 9.199 10.876 9.25 C 10.876 9.291 10.885 9.312 10.926 9.342 C 10.986 9.383 12.074 11.227 12.074 11.299 C 12.074 11.401 11.873 11.647 11.784 11.647 C 11.645 11.647 10.737 12.364 10.386 12.723 C 9.848 13.286 9.639 13.593 9.329 14.208 C 8.891 15.017 8.69 15.745 8.88 15.745 C 8.92 15.745 9.04 15.642 9.18 15.53 C 10.936 13.788 13.122 12.928 15.456 13.061 C 16.304 13.112 17.393 13.358 17.991 13.614 C 18.18 13.706 18.24 13.706 18.749 13.512 C 19.789 13.143 20.287 13.061 21.483 13.061 C 22.372 13.061 22.692 13.102 23.139 13.214 C 23.679 13.358 24.648 13.686 24.898 13.829 C 24.957 13.87 25.057 13.921 25.136 13.932 C 25.188 13.972 25.336 14.034 25.435 14.095 C 25.546 14.157 25.684 14.249 25.735 14.29 C 25.993 14.433 27.092 15.314 27.372 15.611 C 27.511 15.765 27.671 15.806 27.671 15.663 C 27.671 15.509 27.483 14.946 27.312 14.577 C 26.853 13.552 25.855 12.374 25.057 11.873 C 24.846 11.729 24.608 11.575 24.547 11.524 C 24.408 11.412 24.4 11.155 24.538 11.012 C 24.587 10.961 24.638 10.899 24.638 10.858 C 24.638 10.817 24.738 10.643 24.876 10.438 C 25.126 10.07 25.625 9.199 25.725 9.004 C 25.785 8.892 25.874 8.738 26.124 8.338 C 26.225 8.175 26.314 8.031 26.314 8.021 C 26.314 8.011 26.404 7.857 26.503 7.703 C 26.764 7.294 26.843 7.15 26.904 7.037 C 26.953 6.935 27.493 6.003 27.602 5.808 C 27.642 5.757 27.701 5.644 27.742 5.562 C 27.782 5.501 27.881 5.317 27.94 5.214 C 28 5.101 28.15 4.856 28.239 4.661 C 28.739 3.698 29.428 2.878 29.877 2.704 C 30.436 2.459 30.765 2.397 31.134 2.387 C 32.272 2.387 33.239 3.042 33.839 4.19 L 34.028 4.538 L 34.038 9.199 C 34.048 11.903 34.038 14.054 33.988 14.28 C 33.888 14.905 33.747 15.345 33.448 15.96 C 32.992 16.892 32.541 17.507 31.413 18.715 C 30.716 19.473 30.456 19.852 30.275 20.498 C 30.166 20.908 30.166 21.256 30.176 25.271 L 30.216 29.615 L 30.016 29.625 C 29.857 29.635 29.776 29.584 29.568 29.318 C 29.428 29.123 29.218 28.867 29.108 28.744 C 28.998 28.601 28.709 28.273 28.461 27.986 C 28.219 27.72 27.82 27.259 27.562 26.972 C 26.463 25.794 26.263 25.548 26.263 25.394 C 26.263 25.302 26.314 25.23 26.375 25.2 C 26.433 25.189 26.573 25.107 26.673 25.056 C 26.773 25.005 26.883 24.954 26.935 24.954 C 27.022 24.954 27.691 24.401 27.921 24.175 C 28.18 23.878 28.519 23.202 28.519 22.946 C 28.519 22.741 27.97 22.219 27.531 21.983 C 26.873 21.635 26.225 21.522 25.238 21.563 C 24.349 21.604 23.779 21.676 23.55 21.809 C 23.49 21.85 23.29 21.952 23.11 22.024 C 22.611 22.27 22.611 22.321 23.251 23.212 C 23.409 23.427 23.559 23.663 23.589 23.684 C 23.689 23.827 24.19 24.565 24.488 25.056 C 25.198 26.193 25.575 26.787 25.795 27.115 C 25.934 27.31 26.055 27.525 26.094 27.586 C 26.194 27.74 26.404 28.099 26.483 28.191 C 26.523 28.232 26.734 28.56 26.972 28.918 C 27.213 29.287 27.572 29.85 27.782 30.188 C 28.329 31.049 28.679 31.571 28.77 31.684 C 28.808 31.745 28.917 31.899 29.018 32.042 C 29.118 32.186 29.279 32.493 29.408 32.708 C 29.599 33.077 29.609 33.18 29.609 33.794 C 29.609 34.265 29.568 34.511 29.508 34.603 C 29.458 34.665 29.408 34.767 29.408 34.819 C 29.408 34.921 29.057 35.392 28.77 35.679 C 28.38 36.048 27.711 36.335 27.213 36.345 C 26.625 36.345 25.874 35.997 25.177 35.413 C 25.116 35.361 24.618 34.993 23.979 34.552 C 23.879 34.46 23.769 34.388 23.738 34.358 C 23.728 34.347 23.54 34.204 23.339 34.05 C 23.139 33.907 22.942 33.753 22.901 33.733 C 22.852 33.681 22.093 33.118 21.503 32.698 C 21.445 32.647 21.115 32.401 20.816 32.186 C 20.515 31.94 20.256 31.776 20.216 31.776 C 20.176 31.776 20.157 31.735 20.127 31.725 C 20.127 31.684 19.818 31.459 19.439 31.202 C 19.079 30.946 18.749 30.69 18.729 30.649 C 18.69 30.608 18.68 29.676 18.68 28.56 L 18.68 26.552 L 18.87 26.357 C 19.367 25.855 20.076 26.214 20.076 26.972 C 20.076 27.392 20.176 27.443 20.586 27.218 C 20.846 27.054 20.945 26.951 21.094 26.644 C 21.393 25.978 21.294 25.405 20.806 24.944 C 20.256 24.431 19.367 24.186 18.16 24.226 C 17.173 24.267 16.724 24.37 16.215 24.636 C 15.756 24.892 15.615 25.036 15.417 25.405 C 15.167 25.927 15.307 26.542 15.775 27.033 C 16.015 27.279 16.374 27.453 16.435 27.392 C 16.444 27.382 16.495 27.177 16.525 26.941 C 16.585 26.47 16.683 26.265 16.963 26.173 C 17.263 26.07 17.573 26.163 17.763 26.419 L 17.921 26.634 L 17.921 28.59 L 17.921 30.547 L 17.763 30.711 C 17.661 30.803 17.372 31.018 17.113 31.213 C 16.854 31.407 16.204 31.879 15.656 32.288 C 15.107 32.698 14.548 33.108 14.4 33.221 C 13.739 33.722 12.064 34.962 11.465 35.413 C 10.626 36.038 10.526 36.089 10.076 36.232 C 9.579 36.386 9.239 36.376 8.731 36.191 C 7.243 35.689 6.536 33.979 7.243 32.647 C 7.383 32.401 7.792 31.725 8.192 31.121 C 8.901 30.035 9.789 28.672 9.928 28.467 C 9.968 28.406 10.137 28.119 10.327 27.853 C 10.516 27.586 10.676 27.33 10.685 27.289 C 10.696 27.248 10.796 27.125 10.895 26.982 C 10.995 26.839 11.095 26.716 11.095 26.685 C 11.095 26.624 12.832 23.929 13.391 23.141 C 13.99 22.28 13.98 22.26 13.3 21.952 C 12.741 21.686 12.363 21.604 11.315 21.584 C 10.656 21.543 10.356 21.584 9.978 21.676 C 8.939 21.932 8.081 22.547 8.081 23.007 C 8.081 23.561 8.819 24.544 9.439 24.851 C 9.789 25.015 10.087 25.159 10.237 25.2 C 10.476 25.261 10.346 25.548 9.779 26.163 C 9.468 26.511 8.88 27.136 8.52 27.556 C 8.131 27.976 7.683 28.488 7.522 28.683 C 7.363 28.877 7.125 29.154 6.984 29.307 C 6.745 29.615 6.496 29.707 6.385 29.471 C 6.345 29.41 6.335 27.679 6.375 25.159 C 6.437 20.498 6.437 20.508 6.016 19.729 C 5.876 19.484 5.507 19.012 5.117 18.603 C 3.671 17.076 2.882 15.786 2.632 14.464 C 2.544 13.993 2.534 5.04 2.622 4.569 C 2.664 4.415 2.713 4.251 2.762 4.2 C 2.802 4.149 2.901 3.995 2.963 3.852 C 3.112 3.555 3.5 3.135 3.871 2.868 C 4.529 2.397 5.577 2.213 6.315 2.499 L 6.216 2.489 Z M 18.988 32.719 C 19.337 33.036 19.789 33.477 19.989 33.651 C 20.298 33.958 20.846 34.46 21.383 34.88 C 21.473 34.941 21.624 35.085 21.684 35.146 C 21.774 35.208 21.974 35.402 22.144 35.556 C 22.343 35.72 22.442 35.863 22.442 35.966 C 22.442 36.171 21.903 36.539 21.135 36.878 C 21.024 36.929 20.826 37.021 20.695 37.072 C 19.548 37.543 16.713 37.574 15.765 37.072 C 15.666 37.021 15.527 36.97 15.466 36.97 C 15.417 36.97 15.276 36.929 15.208 36.867 C 15.107 36.816 14.966 36.755 14.917 36.724 C 14.867 36.683 14.728 36.621 14.618 36.56 C 14.519 36.499 14.37 36.406 14.319 36.365 C 13.869 36.15 13.879 35.853 14.359 35.484 C 14.558 35.32 14.767 35.126 14.867 35.034 C 14.957 34.941 15.466 34.481 16.005 34.02 C 16.545 33.548 17.044 33.098 17.143 32.995 C 17.602 32.524 18.101 32.114 18.229 32.114 C 18.291 32.114 18.64 32.381 18.988 32.688 L 18.988 32.719 Z" style="stroke-width: 1; transform-origin: -73.234px -50.417px; fill: #555555;"/>
  <g id="svgGroup" fill-rule="nonzero" font-size="9pt" transform="matrix(0.409293, 0, 0, 0.409299, 52.777374, 16.678787)">
    <path d="M 62.7 35.175 A 8.559 8.559 0 0 0 65.831 38.644 A 8.278 8.278 0 0 0 70.35 39.938 A 10.019 10.019 0 0 0 72.094 39.806 Q 72.825 39.675 73.388 39.469 A 4.789 4.789 0 0 0 74.4 38.963 Q 74.85 38.663 75.263 38.325 Q 76.5 37.35 77.681 37.2 Q 78.863 37.05 79.913 37.463 Q 80.625 37.725 81.188 38.25 Q 81.75 38.775 82.163 39.45 Q 82.575 40.125 82.763 40.913 A 4.268 4.268 0 0 1 82.88 41.904 A 4.352 4.352 0 0 1 82.838 42.506 A 4.875 4.875 0 0 1 82.313 44.1 Q 81.9 44.888 81.075 45.525 Q 80.325 46.163 79.35 46.763 Q 78.375 47.363 77.081 47.831 Q 75.788 48.3 74.138 48.581 A 22.736 22.736 0 0 1 70.35 48.863 A 17.432 17.432 0 0 1 63.375 47.456 A 18.509 18.509 0 0 1 57.656 43.631 A 18.055 18.055 0 0 1 53.775 37.969 Q 52.35 34.725 52.35 31.013 Q 52.35 27.3 53.775 24.038 Q 55.2 20.775 57.656 18.356 A 18.509 18.509 0 0 1 63.375 14.531 A 17.432 17.432 0 0 1 70.35 13.125 A 17.655 17.655 0 0 1 77.25 14.494 Q 80.513 15.863 82.95 18.263 A 18.378 18.378 0 0 1 86.831 23.869 A 17.449 17.449 0 0 1 88.35 30.75 Q 88.35 32.738 87.075 33.956 A 4.579 4.579 0 0 1 83.775 35.175 L 62.7 35.175 Z M 78.788 27.45 A 8.474 8.474 0 0 0 75.619 23.475 A 8.847 8.847 0 0 0 70.5 21.975 Q 69.075 21.975 67.8 22.388 Q 66.525 22.8 65.494 23.531 A 8.586 8.586 0 0 0 63.675 25.275 Q 62.888 26.288 62.438 27.45 L 78.788 27.45 Z M 9.3 29.438 L 9.3 43.875 Q 9.3 44.85 8.925 45.675 Q 8.55 46.5 7.931 47.119 A 4.494 4.494 0 0 1 6.45 48.094 A 4.67 4.67 0 0 1 4.65 48.45 Q 3.675 48.45 2.831 48.094 Q 1.988 47.738 1.35 47.119 Q 0.713 46.5 0.356 45.675 Q 0 44.85 0 43.875 L 0 5.025 Q 0 4.05 0.356 3.225 Q 0.713 2.4 1.35 1.781 Q 1.988 1.163 2.831 0.806 Q 3.675 0.45 4.65 0.45 L 17.138 0.45 A 14.421 14.421 0 0 1 22.856 1.594 Q 25.538 2.738 27.544 4.706 Q 29.55 6.675 30.694 9.319 Q 31.838 11.963 31.838 15 Q 31.838 18.038 30.694 20.663 Q 29.55 23.288 27.544 25.238 Q 25.538 27.188 22.856 28.313 Q 20.175 29.438 17.138 29.438 L 9.3 29.438 Z M 9.3 9.638 L 9.3 20.138 L 17.175 20.138 Q 18.225 20.138 19.2 19.688 Q 20.175 19.238 20.906 18.488 Q 21.638 17.738 22.088 16.763 Q 22.538 15.788 22.538 14.738 Q 22.538 13.688 22.088 12.75 A 5.516 5.516 0 0 0 20.906 11.119 Q 20.175 10.425 19.2 10.031 Q 18.225 9.638 17.175 9.638 L 9.3 9.638 Z M 105.938 13.2 L 108 13.2 Q 108.975 13.2 109.838 13.556 A 4.494 4.494 0 0 1 111.319 14.531 Q 111.938 15.15 112.294 15.994 A 4.627 4.627 0 0 1 112.65 17.813 A 4.627 4.627 0 0 1 112.294 19.631 A 4.768 4.768 0 0 1 111.319 21.113 Q 110.7 21.75 109.838 22.125 Q 108.975 22.5 108 22.5 L 105.938 22.5 L 105.938 43.875 Q 105.938 44.85 105.581 45.675 A 4.449 4.449 0 0 1 104.588 47.119 Q 103.95 47.738 103.106 48.094 A 4.627 4.627 0 0 1 101.288 48.45 Q 100.313 48.45 99.469 48.094 Q 98.625 47.738 97.988 47.119 Q 97.35 46.5 96.994 45.675 Q 96.638 44.85 96.638 43.875 L 96.638 22.5 L 94.875 22.5 Q 93.9 22.5 93.056 22.125 A 4.874 4.874 0 0 1 91.575 21.113 A 4.609 4.609 0 0 1 90.581 19.631 Q 90.225 18.788 90.225 17.813 A 4.627 4.627 0 0 1 90.581 15.994 A 4.398 4.398 0 0 1 91.575 14.531 A 4.768 4.768 0 0 1 93.056 13.556 Q 93.9 13.2 94.875 13.2 L 96.638 13.2 L 96.638 5.025 Q 96.638 4.05 96.994 3.225 A 4.449 4.449 0 0 1 97.988 1.781 A 4.768 4.768 0 0 1 99.469 0.806 Q 100.313 0.45 101.288 0.45 Q 102.263 0.45 103.106 0.806 Q 103.95 1.163 104.588 1.781 Q 105.225 2.4 105.581 3.225 Q 105.938 4.05 105.938 5.025 L 105.938 13.2 Z M 177.525 30.75 L 177.525 43.688 Q 177.525 44.663 177.15 45.544 A 4.754 4.754 0 0 1 176.138 47.063 Q 175.5 47.7 174.638 48.075 Q 173.775 48.45 172.763 48.45 Q 171.338 48.45 170.288 47.756 A 4.346 4.346 0 0 1 168.713 45.938 Q 166.688 47.288 164.419 48.075 Q 162.15 48.863 159.675 48.863 A 17.206 17.206 0 0 1 152.756 47.456 Q 149.513 46.05 147.075 43.631 A 18.153 18.153 0 0 1 143.213 37.95 Q 141.788 34.688 141.788 31.013 A 17.102 17.102 0 0 1 143.213 24.056 Q 144.638 20.813 147.075 18.375 A 18.177 18.177 0 0 1 152.756 14.531 A 17.206 17.206 0 0 1 159.675 13.125 Q 163.313 13.125 166.538 14.513 A 18.231 18.231 0 0 1 172.181 18.281 A 17.976 17.976 0 0 1 176.025 23.888 Q 177.45 27.113 177.525 30.75 Z M 151.125 31.013 Q 151.125 32.775 151.8 34.331 Q 152.475 35.888 153.638 37.05 A 8.442 8.442 0 0 0 156.356 38.869 Q 157.913 39.525 159.675 39.525 A 8.549 8.549 0 0 0 163.031 38.869 A 8.229 8.229 0 0 0 165.731 37.05 Q 166.875 35.888 167.55 34.331 Q 168.225 32.775 168.225 31.013 Q 168.225 29.213 167.55 27.675 Q 166.875 26.138 165.731 24.975 Q 164.588 23.813 163.031 23.156 A 8.549 8.549 0 0 0 159.675 22.5 A 8.453 8.453 0 0 0 156.356 23.156 Q 154.8 23.813 153.638 24.975 Q 152.475 26.138 151.8 27.675 Q 151.125 29.213 151.125 31.013 Z M 116.963 43.838 L 116.963 17.7 Q 116.963 16.763 117.338 15.919 Q 117.713 15.075 118.35 14.438 A 4.511 4.511 0 0 1 119.869 13.444 A 4.906 4.906 0 0 1 121.725 13.088 Q 123.15 13.088 124.275 13.875 Q 125.4 14.663 125.925 15.9 Q 128.025 14.588 130.444 13.875 Q 132.863 13.163 135.488 13.125 L 135.75 13.125 A 4.775 4.775 0 0 1 139.313 14.419 Q 140.588 15.713 140.588 17.738 Q 140.588 18.75 140.213 19.594 Q 139.838 20.438 139.181 21.056 A 4.627 4.627 0 0 1 137.644 22.013 Q 136.763 22.35 135.75 22.35 L 135.563 22.35 A 9.017 9.017 0 0 0 131.963 23.156 Q 130.275 23.925 129 25.219 Q 127.725 26.513 126.994 28.238 Q 126.263 29.963 126.263 31.913 L 126.263 43.838 A 4.492 4.492 0 0 1 125.906 45.638 A 4.667 4.667 0 0 1 124.913 47.1 Q 124.275 47.738 123.431 48.094 A 4.533 4.533 0 0 1 121.65 48.45 A 4.627 4.627 0 0 1 119.831 48.094 Q 118.988 47.738 118.35 47.1 Q 117.713 46.463 117.338 45.638 Q 116.963 44.813 116.963 43.838 Z M 46.988 43.838 Q 46.988 44.813 46.631 45.638 A 4.667 4.667 0 0 1 45.638 47.1 Q 45 47.738 44.156 48.094 A 4.533 4.533 0 0 1 42.375 48.45 Q 41.4 48.45 40.556 48.094 A 4.609 4.609 0 0 1 39.075 47.1 Q 38.438 46.463 38.063 45.638 Q 37.688 44.813 37.688 43.838 L 37.688 17.7 Q 37.688 16.763 38.063 15.919 A 4.874 4.874 0 0 1 39.075 14.438 A 4.511 4.511 0 0 1 40.594 13.444 A 4.906 4.906 0 0 1 42.45 13.088 A 4.533 4.533 0 0 1 44.231 13.444 A 4.198 4.198 0 0 1 45.675 14.438 A 4.947 4.947 0 0 1 46.631 15.919 Q 46.988 16.763 46.988 17.7 L 46.988 43.838 Z M 37.313 4.988 Q 37.313 3.938 37.706 3.038 Q 38.1 2.138 38.775 1.463 A 5.03 5.03 0 0 1 40.369 0.394 A 4.852 4.852 0 0 1 42.3 0 Q 43.313 0 44.231 0.394 A 5.261 5.261 0 0 1 45.844 1.463 Q 46.538 2.138 46.931 3.038 A 4.811 4.811 0 0 1 47.325 4.988 Q 47.325 6 46.931 6.919 Q 46.538 7.838 45.844 8.513 Q 45.15 9.188 44.231 9.581 Q 43.313 9.975 42.3 9.975 A 4.852 4.852 0 0 1 40.369 9.581 Q 39.45 9.188 38.775 8.513 Q 38.1 7.838 37.706 6.919 A 4.852 4.852 0 0 1 37.313 4.988 Z" style="fill: #CC5500;"/>
  </g>
  <g id="group-2" fill-rule="nonzero" font-size="9pt" transform="matrix(0.413089, 0, 0, 0.413096, 127.67186, 16.678833)">
    <path d="M 36.563 4.575 L 36.563 30.45 Q 36.563 34.163 35.269 37.425 Q 33.975 40.688 31.613 43.144 Q 29.25 45.6 25.95 47.006 A 18.568 18.568 0 0 1 18.6 48.413 A 19.299 19.299 0 0 1 11.175 47.006 Q 7.763 45.6 5.288 43.144 A 18.03 18.03 0 0 1 1.407 37.425 Q 0 34.163 0 30.45 L 0 4.65 Q 0 3.675 0.357 2.831 Q 0.713 1.988 1.35 1.35 A 4.609 4.609 0 0 1 2.832 0.356 A 4.627 4.627 0 0 1 4.65 0 Q 5.588 0 6.45 0.356 A 4.352 4.352 0 0 1 7.932 1.35 A 5.052 5.052 0 0 1 8.925 2.831 Q 9.3 3.675 9.3 4.65 L 9.3 30.188 Q 9.3 31.988 9.975 33.638 Q 10.65 35.288 11.869 36.525 A 9.117 9.117 0 0 0 14.775 38.494 Q 16.463 39.225 18.525 39.225 A 8.938 8.938 0 0 0 22.219 38.494 Q 23.85 37.763 24.975 36.525 A 8.38 8.38 0 0 0 26.682 33.638 Q 27.263 31.988 27.263 30.188 L 27.263 4.575 Q 27.263 3.6 27.619 2.775 A 4.449 4.449 0 0 1 28.613 1.331 Q 29.25 0.713 30.094 0.356 Q 30.938 0 31.913 0 Q 32.888 0 33.732 0.356 Q 34.575 0.713 35.213 1.331 A 4.449 4.449 0 0 1 36.207 2.775 Q 36.563 3.6 36.563 4.575 Z M 54.375 43.425 Q 54.375 44.4 54 45.225 Q 53.625 46.05 53.007 46.669 A 4.494 4.494 0 0 1 51.525 47.644 A 4.67 4.67 0 0 1 49.725 48 Q 48.75 48 47.907 47.644 Q 47.063 47.288 46.425 46.669 Q 45.788 46.05 45.432 45.225 Q 45.075 44.4 45.075 43.425 L 45.075 4.575 Q 45.075 3.6 45.432 2.775 Q 45.788 1.95 46.425 1.331 Q 47.063 0.713 47.907 0.356 Q 48.75 0 49.725 0 Q 50.663 0 51.525 0.356 A 4.494 4.494 0 0 1 53.007 1.331 Q 53.625 1.95 54 2.775 Q 54.375 3.6 54.375 4.575 L 54.375 43.425 Z" style="fill: #555555;"/>
  </g>
</svg>
